# xmcd
#
# Track frame offsets:
#	150
#	25023
#	41421
#	66144
#	91317
#	112065
#	141213
#	154236
#	176709
#	195207
#	215280
#	234603
#	257676
#	283974
#	308472
#
# Disc length: 4663 seconds
# Revision: 0
# Processed by: cddbd v1.5.2PL0 Copyright (c) Steve Scherf et al.
# Submitted via: dBpowerAMP V12.0
#
DISCID=cd12350f
DTITLE=Various Artist - The Sound of Guitar Rock Best Of
DYEAR=2012
DGENRE=Blues
TTITLE0=Blindside Blues Band - Raised on Rock
TTITLE1=Johnny Hunkins - Rock N' Roll Party
TTITLE2=Jay Jesse Johnson - Play That Damn Guitar
TTITLE3=Guitar Pete - Battle Cry
TTITLE4=Blindstone - Struck Down By The Blues
TTITLE5=Mountain Of Power - Talkin' 'Bout A Feeling
TTITLE6=Vince Hawkins and Company Slave - Goin' To The Southside
TTITLE7=Dirty Dave Osti - Dirtshack
TTITLE8=Plankton - Humble Colossus
TTITLE9=Craig Erickson - For Your Love
TTITLE10=Bryce Janey - Funky Guitar Blues
TTITLE11=Tony Spinner - Knucklehead
TTITLE12=Gugun Power Trio - Mission
TTITLE13=Sky High - Jimi
TTITLE14=Greg Koch - Foolish Mortals
EXTD=
EXTT0=
EXTT1=
EXTT2=
EXTT3=
EXTT4=
EXTT5=
EXTT6=
EXTT7=
EXTT8=
EXTT9=
EXTT10=
EXTT11=
EXTT12=
EXTT13=
EXTT14=
PLAYORDER=
